# xmcd
#
# Track frame offsets:
# 150
# 14663
# 32418
# 53666
# 73759
# 92539
# 102359
# 113111
# 127029
# 136809
# 150845
#
# Disc length: 2254 seconds
#
#
# Revision: 0
# Processed by: cddbd v1.4PL0 Copyright (c) Steve Scherf et al.
# Submitted via: FreeRIP 2.11 
#
DISCID=8608cc0b
DTITLE=Joedy and Lonnie Melashenko - Brothers in Song
DYEAR=2001
DGENRE=Christian Country
TTITLE0=Restore My Soul
TTITLE1=Though Your Sins Be as Scarlet
TTITLE2=He Came to Me
TTITLE3=All of Me/I Surrender All
TTITLE4=Touch Your People Once Again
TTITLE5=God Is SoWonderful
TTITLE6=Honor the Lord
TTITLE7=Honor and Praise
TTITLE8=Saved, Saved
TTITLE9=Casting Every Care on Him
TTITLE10=Think About His Love
EXTD=
EXTT0=
EXTT1=
EXTT2=
EXTT3=
EXTT4=
EXTT5=
EXTT6=
EXTT7=
EXTT8=
EXTT9=
EXTT10=
PLAYORDER=
